<svg height="100pt" viewBox="-8 0 480 480" width="100pt" xmlns="http://www.w3.org/2000/svg"><path d="m456 104h-392v24l392 8zm0 0" fill="#5f3a28"/><path d="m456 72h-392v-24l392-8zm0 0" fill="#8f563b"/><path d="m64 64h392v8h-392zm0 0" fill="#744630"/><path d="m64 104h392v8h-392zm0 0" fill="#744630"/><path d="m88 432h160v40h-160zm0 0" fill="#dbdbdb"/><path d="m88 432h160v24h-160zm0 0" fill="#cbcbcb"/><path d="m96 248h-64c0-35.347656 28.652344-64 64-64zm0 0" fill="#f3af3e"/><path d="m96 248h-32c0-17.671875 14.328125-32 32-32zm0 0" fill="#da922a"/><path d="m240.558594 440h-145.117188c-27.363281-.019531-50.703125-19.804688-55.203125-46.792969l-20.238281-113.207031-5.320312-3.542969c-4.167969-2.777343-6.671876-7.449219-6.679688-12.457031v-16h320v16c0 5.015625-2.507812 9.699219-6.679688 12.480469-3.386718 2.269531-5.699218 5.824219-6.398437 9.839843l-19.121094 106.886719c-4.503906 27.003907-27.867187 46.792969-55.242187 46.792969zm0 0" fill="#e4e4e2"/><path d="m288 320h-48c-4.417969 0-8 3.582031-8 8v24h-32v-24c0-4.417969-3.582031-8-8-8h-48c-4.417969 0-8 3.582031-8 8v24h-32v-24c0-4.417969-3.582031-8-8-8h-48c-4.417969 0-8 3.582031-8 8v24h-7.152344l2.855469 16h12.296875c4.417969 0 8-3.582031 8-8v-24h32v24c0 4.417969 3.582031 8 8 8h48c4.417969 0 8-3.582031 8-8v-24h32v24c0 4.417969 3.582031 8 8 8h48c4.417969 0 8-3.582031 8-8v-24h32v24c0 4.417969 3.582031 8 8 8h12.296875l2.855469-16h-7.152344v-24c0-4.417969-3.582031-8-8-8zm0 0" fill="#dc4d41"/><path d="m14.679688 276.457031 5.320312 3.542969 1.425781 8h50.574219v-16h-61.558594c1.089844 1.761719 2.53125 3.28125 4.238282 4.457031zm0 0" fill="#ebebeb"/><path d="m88 272h16v16h-16zm0 0" fill="#ebebeb"/><path d="m128 248h-32v-200c0-8.835938 7.164062-16 16-16s16 7.164062 16 16zm0 0" fill="#ea9d2d"/><path d="m192 248h-32v-200c0-8.835938 7.164062-16 16-16s16 7.164062 16 16zm0 0" fill="#ea9d2d"/><path d="m160 248h-32v-224c0-8.835938 7.164062-16 16-16s16 7.164062 16 16zm0 0" fill="#f3af3e"/><path d="m320 248h-80l2.617188-15.679688c3.019531-18.128906 19.683593-30.734374 37.949218-28.703124 22.453125 2.496093 39.433594 21.472656 39.433594 44.0625zm0 0" fill="#f3f3f0"/><path d="m237.910156 216c-18.335937 1.074219-33.769531 14.105469-37.910156 32h75.816406c-4.136718-17.894531-19.570312-30.921875-37.90625-32zm0 0" fill="#fbd699"/><path d="m88 272h16v16h-16zm0 0"/><path d="m455.832031 32-258.398437 5.238281c-5.367188-10.863281-18.046875-15.953125-29.433594-11.8125v-1.425781c-.074219-13.222656-10.777344-23.9257812-24-24-13.253906 0-24 10.746094-24 24v1.457031c-5.871094-2.167969-12.367188-1.90625-18.046875.722657-5.675781 2.632812-10.074219 7.417968-12.21875 13.300781l-25.894531.519531c-4.355469.085938-7.839844 3.644531-7.839844 8v24c0 4.417969 3.582031 8 8 8h24v16h-24c-4.417969 0-8 3.582031-8 8v24c0 4.355469 3.484375 7.914062 7.839844 8l24.160156.480469v40c-33.390625 3.78125-59.742188 30.128906-63.527344 63.519531h-16.472656c-4.417969 0-8 3.582031-8 8v16c-.00390625 7.691406 3.839844 14.875 10.238281 19.136719l2.480469 1.65625 19.59375 109.71875c4.132812 25.191406 22.898438 45.484375 47.6875 51.578125v25.910156c0 4.417969 3.582031 8 8 8h160c4.417969 0 8-3.582031 8-8v-25.910156c24.761719-6.074219 43.515625-26.328125 47.671875-51.480469l19.082031-106.90625c.335938-1.875 1.421875-3.53125 3.007813-4.589844 6.390625-4.257812 10.234375-11.429687 10.238281-19.113281v-16c0-4.417969-3.582031-8-8-8h-.703125c-3.316406-23.539062-22.203125-41.816406-45.839844-44.351562-13.296875-1.488282-26.519531 3.375-35.679687 13.128906-2.589844-.519532-5.222656-.785156-7.867188-.800782-15.441406.378907-29.671875 8.457032-37.910156 21.527344v-90.695312l255.832031 5.191406h.167969c4.417969 0 8-3.582031 8-8v-32c0-4.417969-3.582031-8-8-8h-256v-16h256c4.417969 0 8-3.582031 8-8v-32c0-2.152344-.867188-4.210938-2.402344-5.71875-1.535156-1.503906-3.613281-2.328125-5.765625-2.28125zm-287.726562 14.960938c.496093-3.980469 3.882812-6.96875 7.894531-6.960938 2.117188.003906 4.140625.871094 5.601562 2.398438 1.207032 1.203124 2 2.761718 2.261719 4.449218.085938.378906.128907.765625.136719 1.152344v192h-16v-192c.011719-.347656.046875-.695312.105469-1.039062zm-32.105469-22.960938c0-4.417969 3.582031-8 8-8 2.15625-.003906 4.214844.882812 5.695312 2.449219 1.492188 1.457031 2.324219 3.464843 2.304688 5.550781v216h-16zm-24 16c2.164062 0 4.230469.890625 5.710938 2.464844 1.375 1.402344 2.1875 3.261718 2.289062 5.222656v192.3125h-16v-192.265625c.21875-4.277344 3.714844-7.660156 8-7.734375zm-38.632812 200c2.433593-6.828125 7.804687-12.199219 14.632812-14.632812v14.632812zm-1.367188-176v-8.160156l16-.320313v8.480469zm0 56.160156v-8.160156h16v8.480469zm16 72.40625v16.234375c-15.699219 3.234375-27.964844 15.5-31.199219 31.199219h-16.234375c3.585938-24.558594 22.875-43.847656 47.433594-47.433594zm152 271.433594h-144v-16h144zm.558594-32h-145.117188c-23.519531.054688-43.597656-16.984375-47.371094-40.199219l-4.238281-23.800781h4.167969c4.417969 0 8-3.582031 8-8v-24h32v24c0 4.417969 3.582031 8 8 8h48c4.417969 0 8-3.582031 8-8v-24h32v24c0 4.417969 3.582031 8 8 8h48c4.417969 0 8-3.582031 8-8v-24h32v24c0 4.417969 3.582031 8 8 8h4.175781l-4.265625 23.886719c-3.800781 23.179687-23.859375 40.175781-47.351562 40.113281zm79.441406-168c0 2.339844-1.171875 4.527344-3.121094 5.824219-5.199218 3.480469-8.765625 8.925781-9.878906 15.085937l-11 61.632813v-18.542969c0-4.417969-3.582031-8-8-8h-48c-4.417969 0-8 3.582031-8 8v24h-32v-24c0-4.417969-3.582031-8-8-8h-48c-4.417969 0-8 3.582031-8 8v24h-32v-24c0-4.417969-3.582031-8-8-8h-48c-4.417969 0-8 3.582031-8 8v18.542969l-10.449219-58.542969h42.449219v-16h-49.601562l-3.300782-2.199219c-1.933594-1.296875-3.09375-3.472656-3.097656-5.800781v-8h304zm-40.289062-52.425781c15.535156 1.679687 28.234374 13.144531 31.488281 28.425781h-29.863281c-3.863282-9.773438-10.527344-18.195312-19.152344-24.199219 5.175781-3.402343 11.371094-4.90625 17.527344-4.25zm-41.800782 12.425781c10.785156.453125 20.542969 6.527344 25.714844 16h-51.433594c5.175782-9.476562 14.933594-15.546875 25.71875-16zm210.089844-112v15.832031l-248-5.03125v-10.800781zm0-48h-248v-10.808594l248-5.023437zm0 0"/></svg>