<svg height="100pt" viewBox="0 0 464 464" width="100pt" xmlns="http://www.w3.org/2000/svg"><path d="m456 232c0 123.710938-100.289062 224-224 224s-224-100.289062-224-224 100.289062-224 224-224 224 100.289062 224 224zm0 0" fill="#ccdce5"/><path d="m384 232c0 83.949219-68.050781 152-152 152s-152-68.050781-152-152 68.050781-152 152-152 152 68.050781 152 152zm0 0" fill="#aab9c1"/><path d="m52.960938 259.921875c-4.945313 2.304687-9.449219 5.464844-13.296876 9.335937-18.722656 18.753907-18.722656 49.125 0 67.878907 4.230469 4.246093 9.230469 7.644531 14.734376 10.015625-2.210938 14.996094 2.804687 30.15625 13.523437 40.878906 10.71875 10.71875 25.878906 15.734375 40.878906 13.519531 2.367188 5.515625 5.765625 10.53125 10.015625 14.769531 18.753906 18.722657 49.125 18.722657 67.878906 0 3.882813-3.839843 7.0625-8.335937 9.382813-13.28125zm0 0" fill="#88bf40"/><path d="m411.039062 188.078125c4.945313-2.304687 9.449219-5.464844 13.296876-9.335937 18.722656-18.753907 18.722656-49.125 0-67.878907-4.230469-4.246093-9.230469-7.644531-14.734376-10.015625 2.210938-14.996094-2.804687-30.15625-13.523437-40.878906-10.71875-10.71875-25.878906-15.734375-40.878906-13.519531-2.367188-5.515625-5.765625-10.53125-10.015625-14.769531-18.753906-18.722657-49.125-18.722657-67.878906 0-3.882813 3.839843-7.0625 8.335937-9.382813 13.28125zm0 0" fill="#88bf40"/><path d="m260.285156 37.324219 158.390625 158.390625c6.25 6.246094 6.25 16.378906 0 22.628906l-192.332031 192.332031c-6.25 6.246094-16.378906 6.246094-22.628906 0l-158.390625-158.394531c-6.25-6.246094-6.25-16.378906 0-22.625l192.332031-192.332031c6.25-6.25 16.378906-6.25 22.628906 0zm0 0" fill="#ecaf4a"/><path d="m282.910156 59.953125h56.570313v56.566406zm0 0" fill="#f9e000"/><path d="m339.480469 116.519531c15.640625-15.503906 40.871093-15.449219 56.445312.125 15.570313 15.570313 15.625 40.804688.121094 56.445313zm0 0" fill="#eb4042"/><path d="m181.089844 388.046875h-56.570313v-56.566406zm0 0" fill="#f9e000"/><path d="m124.519531 331.480469c-10.089843 10.179687-24.855469 14.179687-38.703125 10.492187-13.851562-3.691406-24.667968-14.507812-28.355468-28.355468-3.691407-13.851563.3125-28.613282 10.492187-38.707032zm0 0" fill="#eb4042"/><g fill="#d69f44"><path d="m260.285156 93.890625c6.246094 6.246094 6.246094 16.378906 0 22.628906l-135.765625 135.761719c-6.25 6.25-16.378906 6.25-22.628906 0-6.246094-6.246094-6.246094-16.378906 0-22.625l135.765625-135.765625c6.25-6.25 16.378906-6.25 22.628906 0zm0 0"/><path d="m311.195312 144.800781c6.25 6.25 6.25 16.382813 0 22.628907l-135.765624 135.765624c-6.246094 6.246094-16.378907 6.246094-22.625 0-6.25-6.25-6.25-16.378906 0-22.628906l135.765624-135.765625c6.246094-6.246093 16.378907-6.246093 22.625 0zm0 0"/><path d="m362.109375 195.714844c6.246094 6.25 6.246094 16.378906 0 22.628906l-135.765625 135.761719c-6.25 6.25-16.378906 6.25-22.628906 0-6.246094-6.246094-6.246094-16.378907 0-22.625l135.765625-135.765625c6.25-6.25 16.378906-6.25 22.628906 0zm0 0"/></g><path d="m34.007812 342.792969c3.566407 3.5625 7.601563 6.617187 12 9.078125-.640624 15.613281 5.28125 30.78125 16.328126 41.832031 11.050781 11.050781 26.21875 16.96875 41.832031 16.328125 8.625 15.199219 23.847656 25.503906 41.164062 27.859375 17.316407 2.351563 34.738281-3.511719 47.109375-15.859375 1.871094-1.921875 3.597656-3.976562 5.167969-6.152344l.496094.496094c9.371093 9.371094 24.5625 9.371094 33.933593 0l192.304688-192.375c9.347656-9.382812 9.347656-24.558594 0-33.945312l-.488281-.488282c2.171875-1.566406 4.226562-3.292968 6.144531-5.167968 21.835938-21.882813 21.835938-57.3125 0-79.199219-3.566406-3.5625-7.601562-6.617188-12-9.078125.640625-15.613282-5.28125-30.78125-16.328125-41.832032-11.050781-11.050781-26.21875-16.96875-41.832031-16.328124-8.632813-15.183594-23.855469-25.46875-41.164063-27.8125-17.304687-2.34375-34.714843 3.523437-47.074219 15.859374-1.871093 1.921876-3.601562 3.976563-5.167968 6.152344l-.488282-.488281c-9.5-9.070313-24.449218-9.070313-33.945312 0l-192.34375 192.328125c-9.347656 9.382812-9.347656 24.558594 0 33.945312l.488281.488282c-2.171875 1.566406-4.226562 3.292968-6.144531 5.167968-21.828125 21.882813-21.824219 57.308594.007812 79.191407zm248.902344-305.464844c9.332032-9.378906 22.703125-13.527344 35.703125-11.070313 13 2.460938 23.933594 11.203126 29.195313 23.34375 1.433594 3.3125 4.90625 5.253907 8.480468 4.742188 12.507813-1.855469 25.15625 2.324219 34.097657 11.269531 8.941406 8.941407 13.117187 21.589844 11.261719 34.097657-.515626 3.582031 1.4375 7.0625 4.757812 8.488281 4.585938 1.96875 8.75 4.792969 12.273438 8.320312 15.59375 15.632813 15.59375 40.9375 0 56.570313-1.925782 1.878906-4.039063 3.5625-6.304688 5.015625l-5.511719-5.519531c12.65625-17.746094 11.75-41.792969-2.207031-58.535157-13.953125-16.742187-37.441406-21.964843-57.175781-12.714843v-41.382813c0-4.417969-3.582031-8-8-8h-53.257813l-8.328125-8.328125c1.453125-2.265625 3.132813-4.375 5.015625-6.296875zm48.570313 59.871094-29.257813-29.246094h29.257813zm63.765625 63.777343-43.582032-43.585937c12.5625-7.070313 28.269532-5.125 38.726563 4.800781 10.363281 10.273438 12.367187 26.292969 4.855469 38.800782zm-344.269532 74.335938 192.335938-192.328125c3.125-3.125 8.1875-3.125 11.3125 0l158.398438 158.398437c1.503906 1.5 2.347656 3.539063 2.347656 5.660157 0 2.125-.84375 4.160156-2.347656 5.660156l-192.335938 192.3125c-3.160156 3.023437-8.140625 3.023437-11.304688 0l-158.398437-158.398437c-3.121094-3.121094-3.125-8.179688-.007813-11.304688zm17.777344 51.710938 43.582032 43.585937c-12.5625 7.070313-28.269532 5.125-38.726563-4.800781-10.363281-10.273438-12.367187-26.292969-4.855469-38.800782zm63.765625 63.777343 29.257813 29.246094h-29.257813zm-75.382812-75.386719c-12.65625 17.746094-11.75 41.792969 2.207031 58.535157 13.953125 16.742187 37.441406 21.964843 57.175781 12.714843v41.382813c0 4.417969 3.582031 8 8 8h53.257813l8.328125 8.328125c-1.453125 2.265625-3.132813 4.375-5.015625 6.296875-9.332032 9.378906-22.703125 13.527344-35.703125 11.070313-13-2.460938-23.933594-11.203126-29.195313-23.34375-1.433594-3.3125-4.90625-5.253907-8.480468-4.742188-12.507813 1.855469-25.15625-2.324219-34.097657-11.269531-8.941406-8.941407-13.117187-21.589844-11.261719-34.097657.507813-3.589843-1.460937-7.074218-4.800781-8.488281-4.582031-1.96875-8.746093-4.792969-12.269531-8.320312-15.59375-15.632813-15.59375-40.9375 0-56.570313 1.925781-1.878906 4.035156-3.5625 6.304688-5.015625zm0 0"/><path d="m96.230469 257.945312c9.375 9.375 24.574219 9.375 33.945312 0l135.761719-135.769531c9.371094-9.371093 9.371094-24.570312 0-33.945312-9.5-9.058594-24.4375-9.058594-33.9375 0l-135.769531 135.769531c-9.371094 9.371094-9.371094 24.570312 0 33.945312zm11.3125-22.632812 135.769531-135.761719c3.164062-3.019531 8.144531-3.019531 11.3125 0 1.5 1.5 2.34375 3.539063 2.34375 5.660157 0 2.125-.84375 4.160156-2.34375 5.660156l-135.761719 135.761718c-3.121093 3.125-8.1875 3.125-11.316406.003907-3.125-3.125-3.125-8.191407-.003906-11.316407zm0 0"/><path d="m140.121094 291.878906c-.019532 6.371094 2.511718 12.480469 7.03125 16.96875 9.371094 9.371094 24.5625 9.371094 33.9375 0l135.757812-135.757812c9.09375-9.417969 8.964844-24.386719-.292968-33.644532-9.257813-9.257812-24.226563-9.386718-33.644532-.292968l-135.757812 135.757812c-4.515625 4.492188-7.046875 10.601563-7.03125 16.96875zm18.34375-5.65625 135.757812-135.757812c2.011719-2.082032 4.984375-2.914063 7.78125-2.183594 2.796875.734375 4.980469 2.917969 5.714844 5.714844.730469 2.796875-.101562 5.769531-2.183594 7.78125l-135.757812 135.757812c-3.125 3.125-8.1875 3.125-11.3125 0s-3.125-8.1875 0-11.3125zm0 0"/><path d="m198.0625 359.769531c9.375 9.367188 24.566406 9.367188 33.9375 0l135.769531-135.769531c9.371094-9.375 9.371094-24.570312 0-33.945312-9.375-9.371094-24.570312-9.371094-33.945312 0l-135.761719 135.769531c-9.371094 9.371093-9.371094 24.570312 0 33.945312zm11.3125-22.632812 135.761719-135.761719c3.121093-3.125 8.1875-3.125 11.316406-.003906 3.125 3.125 3.125 8.191406.003906 11.316406l-135.769531 135.761719c-3.160156 3.027343-8.148438 3.027343-11.3125 0-3.121094-3.125-3.121094-8.1875 0-11.3125zm0 0"/><path d="m16.535156 247.433594c-.359375-5.035156-.535156-10.265625-.535156-15.433594.132812-119.238281 96.761719-215.867188 216-216 5.121094 0 10.3125.183594 15.441406.542969l1.117188-15.957031c-5.496094-.394532-11.0625-.585938-16.558594-.585938-128.070312.144531-231.855469 103.929688-232 232 0 5.542969.191406 11.121094.585938 16.566406zm0 0"/><path d="m464 232c-.003906-11.085938-.785156-22.160156-2.34375-33.136719l-15.839844 2.273438c1.453125 10.222656 2.183594 20.535156 2.183594 30.863281-.132812 119.238281-96.761719 215.867188-216 216-10.328125 0-20.640625-.730469-30.863281-2.183594l-2.273438 15.832032c10.976563 1.566406 22.050781 2.351562 33.136719 2.351562 128.070312-.144531 231.855469-103.929688 232-232zm0 0"/></svg>