<svg height="100pt" viewBox="0 0 480 480" width="100pt" xmlns="http://www.w3.org/2000/svg"><path d="m472 240c0 128.128906-103.871094 232-232 232s-232-103.871094-232-232 103.871094-232 232-232 232 103.871094 232 232zm0 0" fill="#ebebeb"/><path d="m424 240c0 101.621094-82.378906 184-184 184s-184-82.378906-184-184 82.378906-184 184-184 184 82.378906 184 184zm0 0" fill="#fbb540"/><path d="m360 216c0 13.253906 10.746094 24 24 24h-40c-13.253906 0-24 10.746094-24 24s10.746094 24 24 24h-64c-13.253906 0-24 10.746094-24 24s10.746094 24 24 24h-64c-13.253906 0-24 10.746094-24 24s10.746094 24 24 24h14.230469c-6.191407 6.777344-7.9375 16.511719-4.484375 25.023438 3.453125 8.507812 11.488281 14.273437 20.652344 14.816406 56.101562-1.964844 108.234374-29.429688 141.578124-74.585938s44.253907-103.0625 29.625-157.253906h-33.601562c-13.253906 0-24 10.746094-24 24zm0 0" fill="#a45e14"/><path d="m56 200c.011719 3.578125.832031 7.105469 2.398438 10.320312 1.636718-10.058593 4.109374-19.957031 7.402343-29.601562-6.15625 4.496094-9.796875 11.660156-9.800781 19.28125zm0 0" fill="#e4e4e2"/><path d="m184 290.960938c-.625-26.722657-11.335938-49.535157-26.34375-60.304688-4.152344-25.058594-24.648438-44.1875-49.933594-46.597656-25.289062-2.410156-49.027344 12.5-57.839844 36.328125-8.808593 23.824219-.476562 50.59375 20.292969 65.214843-8.960937 11.0625-9.46875 26.738282-1.246093 38.359376 8.222656 11.625 23.175781 16.359374 36.589843 11.589843 8.550781 15.203125 21.304688 24.800781 35.351563 24.457031 24.730468-.601562 43.984375-31.503906 43.128906-69.046874zm0 0" fill="#aac16b"/><path d="m344 96c.054688-11.609375-8.21875-21.585938-19.636719-23.679688-11.417969-2.097656-22.695312 4.296876-26.761719 15.167969-36.15625-16.785156-79.152343-4.429687-100.878906 28.988281-21.730468 33.417969-15.578125 77.726563 14.433594 103.964844 30.011719 26.234375 74.746094 26.40625 104.960938.40625 30.214843-26 36.710937-70.261718 15.242187-103.847656 7.757813-4.140625 12.613281-12.207031 12.640625-21zm0 0" fill="#f9f9f9"/><path d="m304 160c0 22.089844-17.910156 40-40 40s-40-17.910156-40-40 17.910156-40 40-40 40 17.910156 40 40zm0 0" fill="#fd9226"/><path d="m58.398438 210.320312c1.636718-10.054687 4.109374-19.957031 7.394531-29.601562-3.285157 9.644531-5.757813 19.546875-7.394531 29.601562zm0 0" fill="#fbb540"/><path d="m148.902344 184.113281c0 13.253907-10.742188 24-24 24-13.253906 0-24-10.746093-24-24 0-13.257812 10.746094-24 24-24 13.257812 0 24 10.742188 24 24zm0 0" fill="#e4ac5a"/><path d="m124.902344 208.113281c6.566406-.003906 12.839844-2.707031 17.34375-7.480469-10.820313-11.117187-25.8125-17.179687-41.316406-16.710937v.191406c0 13.246094 10.730468 23.984375 23.972656 24zm0 0" fill="#9fb464"/><path d="m273.609375 420.792969 20.351563-35.351563-18.050782-15.824218-32.382812 24.808593zm0 0" fill="#fd9226"/><path d="m265.199219 377.824219c.964843 4.605469 3.382812 8.78125 6.898437 11.910156 4.5 3.878906 10.351563 5.820313 16.277344 5.402344l5.601562-9.695313-18.066406-15.839844zm0 0" fill="#ee8a24"/><path d="m416 258.367188-32.382812 24.808593-18.050782-15.824219 20.355469-35.351562zm0 0" fill="#fd9226"/><path d="m389.175781 256.175781c-3.90625-3.390625-8.867187-5.316406-14.039062-5.449219l-9.601563 16.625 18.082032 15.847657 13.0625-10.007813c.046874-6.484375-2.683594-12.679687-7.503907-17.015625zm0 0" fill="#ee8a24"/><path d="m224 378.238281-120-120 120-2zm0 0" fill="#e4ac5a"/><path d="m176.496094 330.734375c5.382812-12.546875 7.945312-26.125 7.503906-39.773437-.214844-11.640626-2.566406-23.144532-6.9375-33.9375l-73.0625 1.214843zm0 0" fill="#9fb464"/><path d="m216 384-120-120 120-2zm0 0" fill="#fbd699"/><path d="m201.496094 369.503906v-91l-89.503906 1.488282zm0 0" fill="#f0cd93"/><path d="m192 408-120-120 120-2zm0 0" fill="#fbd699"/><path d="m383.929688 262.167969c9.226562 8.085937 10.820312 21.851562 3.6875 31.832031-22.714844 31.828125-48.550782 61.304688-77.121094 88-8.957032 8.351562-22.785156 8.570312-32 .503906-5.074219-4.449218-8.027344-10.832031-8.136719-17.578125-.105469-6.746093 2.644531-13.222656 7.578125-17.828125l7.308594-6.832031c21.382812-19.972656 40.71875-42.03125 57.722656-65.839844l5.824219-8.152343c3.914062-5.484376 9.964843-9.054688 16.65625-9.835938 6.695312-.78125 13.402343 1.300781 18.480469 5.730469zm0 0" fill="#fd9226"/><path d="m79.894531 224c13.257813 0 24-10.746094 24-24s-10.742187-24-24-24c-5.066406.015625-9.996093 1.652344-14.0625 4.671875-3.304687 9.683594-5.789062 19.628906-7.433593 29.726563 3.945312 8.300781 12.308593 13.589843 21.496093 13.601562zm0 0" fill="#e4ac5a"/><path d="m57.160156 206.992188c2.820313 9.40625 11.101563 16.136718 20.886719 16.96875 9.785156.835937 19.085937-4.390626 23.457031-13.183594 4.375-8.792969 2.929688-19.367188-3.640625-26.664063-16.25 1.34375-31.109375 9.695313-40.703125 22.878907zm0 0" fill="#9fb464"/><path d="m112 208c0 13.253906-10.746094 24-24 24s-24-10.746094-24-24 10.746094-24 24-24 24 10.746094 24 24zm0 0" fill="#f55648"/><path d="m93.503906 128.695312c-9.292968 12.195313-17.027344 25.503907-23.015625 39.617188 6.988281 7.527344 17.996094 9.761719 27.367188 5.554688 9.371093-4.207032 15.015625-13.921876 14.027343-24.148438-.984374-10.222656-8.378906-18.679688-18.378906-21.023438zm0 0" fill="#e4ac5a"/><path d="m160 192c0 13.253906-10.746094 24-24 24s-24-10.746094-24-24 10.746094-24 24-24 24 10.746094 24 24zm0 0" fill="#fd7422"/><path d="m88 128c-9.554688-.027344-18.210938 5.628906-22.019531 14.394531-3.808594 8.765625-2.035157 18.953125 4.507812 25.917969 5.988281-14.113281 13.722657-27.421875 23.015625-39.617188-1.800781-.441406-3.648437-.675781-5.503906-.695312zm0 0" fill="#e4e4e2"/><path d="m120 160c0 13.253906-10.746094 24-24 24s-24-10.746094-24-24 10.746094-24 24-24 24 10.746094 24 24zm0 0" fill="#f55648"/><path d="m240 480c132.546875 0 240-107.453125 240-240s-107.453125-240-240-240-240 107.453125-240 240c.148438 132.484375 107.515625 239.851562 240 240zm0-464c123.710938 0 224 100.289062 224 224s-100.289062 224-224 224-224-100.289062-224-224c.140625-123.652344 100.347656-223.859375 224-224zm0 0"/><path d="m240 432c2.398438 0 4.734375 0 6.679688-.167969 3.121093-.070312 6.222656-.320312 8.921874-.550781 1.378907-.015625 2.753907-.128906 4.117188-.335938 1.4375-.097656 2.867188-.28125 4.28125-.546874 1.070312-.101563 2.097656-.253907 2.726562-.367188 2.054688-.171875 4.09375-.480469 6.105469-.925781h.175781l2.585938-.441407c.484375-.070312.964844-.167968 1.695312-.328124 1.890626-.277344 3.761719-.679688 5.597657-1.207032.609375-.113281 1.273437-.273437 2.089843-.480468 1.550782-.320313 3.085938-.738282 4.597657-1.144532l1.546875-.40625c2.679687-.738281 5.269531-1.546875 8.285156-2.488281l1.472656-.496094c1.226563-.410156 2.402344-.800781 2.953125-1.066406 1.046875-.304687 2.054688-.679687 3.0625-1.0625l1.34375-.503906c1.601563-.542969 3.007813-1.097657 4.402344-1.710938l1.765625-.746093c1.097656-.457032 2.167969-.902344 2.953125-1.261719 1-.410157 2.015625-.898438 2.6875-1.25 2.488281-1.113281 4.976563-2.320313 7.199219-3.496094 2.226562-1.175781 4.53125-2.28125 6.515625-3.472656 1.132812-.605469 2.261719-1.222657 3.308593-1.863281l.859376-.519532c1.804687-1.082031 3.550781-2.121094 5.03125-3.121094 2.429687-1.488281 4.785156-3.042968 7.0625-4.671874.25-.144532.503906-.304688.738281-.472657 2.398437-1.742187 4.796875-3.558593 7-5.277343 2.0625-1.554688 4.125-3.203126 6.015625-4.800782 3.40625-2.855468 6.480468-5.648437 8.664062-7.863281 1.699219-1.488281 3.316406-3.066406 4.847656-4.730469.703126-.621094 1.351563-1.300781 1.941407-2.03125 1.539062-1.542968 2.960937-3.0625 3.921875-4.238281.773437-.753906 1.5-1.554687 2.175781-2.402344 1.375-1.550781 2.75-3.199219 3.917969-4.65625.644531-.742187 1.238281-1.523437 1.777344-2.34375 1.425781-1.75 2.777343-3.503906 4.160156-5.367187.3125-.40625.625-.855469.894531-1.296875 1.601563-2.144531 3.121094-4.359375 4.371094-6.359375 1.597656-2.398438 3.152343-4.800782 4.589843-7.238282 1.679688-2.847656 3.359376-5.785156 4.695313-8.410156.761719-1.320312 1.425781-2.640625 1.945313-3.78125 2.609374-5.039062 4.921874-10.222656 6.929687-15.53125.351563-.871094.679687-1.765625 1.007813-2.664062l.839843-2.214844c.117188-.296875.230469-.597656.328125-.910156 1.015625-2.5625 1.871094-5.121094 2.535156-7.386719.800782-2.285156 1.441407-4.710937 2.214844-7.621094 1.097656-3.90625 2.039063-7.890625 2.769532-11.738281 1.269531-6.074219 2.199218-12.21875 2.785156-18.398438.253906-2.730468.503906-5.449218.519531-7.375.132813-1 .191406-1.992187.238281-2.992187l-.015625-1.265625c.160157-2.648438.167969-5.296875.167969-8 0-3.199219-.089844-6.449219-.238281-9.199219 0-.167969 0-.800781 0-1-.167969-2.480469-.335938-4.96875-.585938-7.59375-.085937-1.183593-.191406-2.398437-.335937-3.4375-.328125-2.640625-.664063-5.273437-1.054688-7.808593-.441406-3.105469-.953125-6.128907-1.601562-8.800782-.335938-1.871094-.75-3.746094-1.253906-5.921875l-.3125-1.277343c-.386719-1.601563-.800782-3.296876-1.242188-4.914063 0-.109375-.0625-.222656-.101562-.335937-11.9375-43.988282-39.167969-82.28125-76.800782-108-5.375-10.8125-16.394531-17.667969-28.472656-17.710938-1.023438 0-2.03125.089844-3.03125.183594-24.242188-10.71875-50.464844-16.234375-76.96875-16.183594-63.351562-.035156-122.625 31.246094-158.351562 83.558594-10.78125 5.386718-17.609376 16.390625-17.648438 28.441406 0 .960938.199219 1.863281.28125 2.808594-5.390625 12.09375-9.460938 24.730468-12.144531 37.695312-4.113281 5.136719-7.398438 10.882813-9.738281 17.03125-7.9375 21.542969-3.773438 45.6875 10.929687 63.320313 1.890625 2.277343 3.945313 4.417969 6.144531 6.402343-.707031 1.34375-1.332031 2.734376-1.863281 4.15625-.042969.089844-.3125.914063-.34375 1.011719l-.257813.796875c-6.050781 18.546875 2.292969 38.734375 19.664063 47.601563 34.742187 56.875 96.683594 91.453125 163.328125 91.175781zm-141.070312-86.902344c.964843-.105468 1.941406-.160156 2.902343-.335937 7.996094 13.679687 22.34375 22.414062 38.167969 23.238281h.632812l36.519532 36.519531c-31.234375-11.894531-58.390625-32.523437-78.222656-59.421875zm16.078124-73.410156 92.992188-1.542969v94.542969l-8-8v-70.6875c-.003906-2.144531-.871094-4.195312-2.398438-5.695312-1.5625-1.460938-3.609374-2.28125-5.746093-2.304688l-69.390625 1.160156zm102.03125 120.3125c-2.050781 7.679688-1.042968 15.855469 2.808594 22.808594-6.949218-.796875-13.84375-2-20.648437-3.609375.488281-.996094.761719-2.089844.800781-3.199219v-28.6875l10.34375 10.34375c1.5 1.5 3.535156 2.34375 5.65625 2.34375zm-33.039062-97.863281v94.550781l-93-93.007812zm62.71875 121.679687c-8.261719-.664062-14.648438-7.527344-14.71875-15.816406.019531-3.9375 1.503906-7.726562 4.167969-10.625 2.128906-2.34375 2.671875-5.722656 1.390625-8.617188-1.285156-2.894531-4.152344-4.757812-7.320313-4.757812h-6.238281v-32h46.023438c-5.035157 5.84375-7.773438 13.320312-7.703126 21.03125.074219 1.511719.257813 3.011719.542969 4.496094l-24.199219 18.511718c-1.90625 1.457032-3.058593 3.6875-3.140624 6.085938-.082032 2.394531.914062 4.699219 2.714843 6.28125l16.953125 14.882812h-.421875c-2.546875.230469-5.167969.421876-8.050781.527344zm164.65625-215.816406v.089844c.378906 1.644531.753906 3.292968 1.121094 5.292968.59375 2.585938 1.023437 5.160157 1.414062 7.929688.394532 2.480469.699219 4.960938 1.027344 7.558594.117188.847656.183594 1.695312.277344 3.023437.234375 2.3125.386718 4.632813.519531 6.402344v.910156c.160156 2.898438.234375 5.871094.234375 8.800781 0 2.398438 0 4.703126-.136719 6.953126v.65625l-24.640625-21.601563c-1.792968-1.597656-4.222656-2.292969-6.589844-1.878906-2.359374.402343-4.414062 1.835937-5.601562 3.910156l-1.472656 2.570313c-6.894532-3.070313-10.703125-10.542969-9.144532-17.925782 1.5625-7.382812 8.070313-12.671875 15.617188-12.691406zm-22.175781 56.152344c-1.730469-1.511719-3.625-2.832032-5.648438-3.929688l4.449219-7.75 15.390625 13.503906-7.832031 6.023438c-1.6875-2.9375-3.835938-5.585938-6.359375-7.847656zm-117.65625 152.199218-15.40625-13.527343 13.40625-10.265625c2.8125 3.71875 6.523437 6.660156 10.785156 8.546875zm12.183593-31.886718c-3.371093-2.960938-5.332031-7.203125-5.40625-11.691406-.070312-4.484376 1.757813-8.789063 5.03125-11.851563l7.320313-6.832031c21.765625-20.34375 41.453125-42.800782 58.769531-67.042969l5.816406-8.152344c2.589844-3.667969 6.628907-6.050781 11.09375-6.542969.628907-.074218 1.257813-.109374 1.886719-.113281 3.835938 0 7.535157 1.402344 10.402344 3.945313 6.15625 5.367187 7.21875 14.535156 2.457031 21.167968-22.410156 31.378907-47.890625 60.445313-76.058594 86.777344-5.949218 5.601563-15.1875 5.746094-21.3125.335938zm83.800782-128.464844-.246094.433594c-.929688 0-1.839844-.082032-2.777344 0-8.945312 1.050781-17.03125 5.832031-22.265625 13.167968l-5.8125 8.152344c-1.257812 1.757813-2.625 3.4375-3.90625 5.183594-2.863281-2.925781-4.480469-6.84375-4.519531-10.9375 0-8.835938 7.164062-16 16-16zm-82.925782 81.601562c-1.324218-1.011718-2.9375-1.570312-4.601562-1.601562-8.835938 0-16-7.164062-16-16s7.164062-16 16-16h35.929688c-9.839844 11.746094-20.300782 22.964844-31.328126 33.601562zm125.460938-44.289062c0 .039062-.207031.734375-.214844.800781-.527344 2.015625-1.0625 4.0625-1.832031 6.300781-.769531 2.242188-1.382813 4.371094-2.246094 6.554688-.097656.238281-.183593.496094-.265625.75-.335937.847656-.65625 1.730469-.976562 2.601562l-.902344 2.398438c-1.859375 4.894531-3.996094 9.679688-6.402344 14.328125-.445312.984375-.910156 1.90625-1.597656 3.136719-1.367188 2.664062-2.890625 5.328125-4.433594 7.9375-1.261718 2.160156-2.605468 4.246094-4.183594 6.574218-1.253906 2.007813-2.664062 4-4.078124 5.9375-.269532.3125-.503907.65625-.707032 1.015626-1.269531 1.726562-2.550781 3.382812-3.910156 5.039062-.214844.253906-.410156.523438-.59375.800781-.253906.382813-.535156.75-.839844 1.097657-1.175781 1.476562-2.398437 2.886718-3.871094 4.613281-.367187.457031-.800781.929687-1.648437 1.832031-1.214844 1.433594-2.503906 2.792969-3.863281 4.152344-.347656.335937-.671875.695312-.96875 1.082031-.214844.183594-.617188.574219-.800782.796875-1.304687 1.425781-2.6875 2.78125-4.140624 4.058594-2.5625 2.550781-5.347657 5.039062-8.234376 7.453125-1.695312 1.480469-3.480468 2.890625-5.382812 4.320312-1.90625 1.433594-4 3.074219-6 4.554688-.242188.136719-.480469.289062-.703125.453125-2.152344 1.601562-4.386719 3.050781-6.953125 4.625-1.527344 1.015625-3.054688 1.929687-4.625 2.863281l-1 .609375c-.855469.519531-1.71875.984375-3.054688 1.710938-1.816406 1.097656-3.722656 2.03125-5.800781 3.082031-2.078125 1.046875-4.230469 2.152343-6.71875 3.269531-.59375.296875-1.183593.609375-2.066406.96875-.878906.359375-1.894531.800781-2.871094 1.226562l-1.960937.796876c-1.09375.480468-2.191406.898437-3.328125 1.296874l-1.757813.648438c-.617187.238281-1.226562.480469-2.578125.910156-.925781.378906-1.855469.683594-2.78125.984375l-1.601562.546875c-1.472657.460938-2.9375.878906-4.398438 1.320313l7.253907-12.601563c7.082031-.566406 13.769531-3.503906 18.976562-8.335937 28.949219-27.058594 55.132812-56.925781 78.167969-89.167969 3.71875-5.242188 5.75-11.492188 5.832031-17.921875l13.320312-10.199219c-.257812 1.433594-.480468 2.863282-.800781 4.28125-.65625 3.535156-1.480469 7.070313-2.457031 10.527344zm-74.0625-189.3125c-.042969 5.851562-3.277344 11.210938-8.433594 13.976562-1.949218 1.058594-3.371094 2.882813-3.925781 5.03125-.550781 2.152344-.1875 4.433594 1.007813 6.304688 19.394531 30.292969 13.554687 70.242188-13.703126 93.714844-27.253906 23.476562-67.625 23.332031-94.710937-.339844s-32.636719-63.660156-13.023437-93.8125c19.613281-30.15625 58.417968-41.292969 91.035156-26.132812 2.015625.9375 4.328125.992187 6.386718.15625 2.058594-.839844 3.675782-2.492188 4.464844-4.570313 2.3125-6.226563 8.261719-10.347656 14.902344-10.328125 8.835938 0 16 7.164062 16 16zm-96-32c19.5-.035156 38.871094 3.210938 57.296875 9.601562-1.160156 1.164063-2.226563 2.410157-3.199219 3.734376-9.640625-3.542969-19.828125-5.347657-30.097656-5.335938-39.585938-.074219-74.367188 26.25-85.050781 64.367188-10.683594 38.117187 5.347656 78.679687 39.203125 99.191406 33.859375 20.515625 77.238281 15.945312 106.074218-11.171875 28.839844-27.117188 36.070313-70.132813 17.675782-105.1875 4.5-4.242188 7.664062-9.699219 9.113281-15.710938 25.8125 21.015625 45.117187 48.9375 55.65625 80.511719h-22.671875c-11.429688.007812-21.984375 6.113281-27.695312 16.011719-5.710938 9.898437-5.707032 22.089843.007812 31.988281h-12.3125c-11.445312-.035156-22.03125 6.066406-27.742188 15.984375-5.710937 9.917969-5.671874 22.132813.101563 32.015625h-36.359375c-11.429688.003906-21.992188 6.105469-27.707031 16.003906-5.714844 9.898438-5.710938 22.097656.003906 31.996094h-28.296875v-66c-.003906-2.144531-.867188-4.203125-2.398438-5.703125-1.519531-1.53125-3.601562-2.359375-5.753906-2.296875l-31.296875.519531c-4.132812-10.921875-10.886719-20.664062-19.671875-28.359375-1.074218-4.628906-2.664062-9.121094-4.734375-13.398437 8.226563-9.429688 10.164063-22.800781 4.960938-34.175781-5.207031-11.375-16.59375-18.648438-29.105469-18.585938-2.746094.035156-5.476562.429688-8.121094 1.175781 0-.398437.121094-.800781.121094-1.175781-.039062-14.730469-10.132812-27.53125-24.449219-31.007812 33.359375-41.128907 83.492188-65.007813 136.449219-64.992188zm-152 128c8.835938 0 16 7.164062 16 16s-7.164062 16-16 16-16-7.164062-16-16 7.164062-16 16-16zm48-16c8.835938 0 16 7.164062 16 16s-7.164062 16-16 16-16-7.164062-16-16 7.164062-16 16-16zm-40-32c8.835938 0 16 7.164062 16 16s-7.164062 16-16 16-16-7.164062-16-16 7.164062-16 16-16zm-38.574219 79.113281c.316407-.882812.796875-1.65625 1.183594-2.503906 5.171875 12.132813 17.277344 19.832031 30.460937 19.363281 13.183594-.464844 24.714844-9 29.019532-21.46875 8.421875 5.792969 19.152344 7.09375 28.71875 3.488282 1.328125 3.199218 2.296875 6.53125 2.894531 9.945312.335937 2.089844 1.488281 3.960938 3.199219 5.207031 6.085937 4.6875 10.980468 10.738281 14.296875 17.664063l-71.335938 1.191406c-3.210937.054688-6.078125 2.023438-7.28125 5s-.507812 6.386719 1.761719 8.65625l9.871094 9.871094-24.621094.410156c-.25-.285156-.515625-.554688-.800781-.800781-3.40625-2.421875-6.488281-5.269531-9.167969-8.472657-11.167969-13.183593-14.308594-31.386718-8.199219-47.550781zm11.71875 73.34375 1 1m1.847657 1.847657 29.128906 29.128906c-4.597656 1.363281-9.507813 1.246094-14.03125-.335938l-1.601563-.625c-10.871093-4.734375-16.617187-16.730468-13.488281-28.167968zm0 0"/><path d="m264 112c-26.507812 0-48 21.492188-48 48s21.492188 48 48 48 48-21.492188 48-48c-.027344-26.5-21.5-47.972656-48-48zm0 80c-17.671875 0-32-14.328125-32-32s14.328125-32 32-32 32 14.328125 32 32-14.328125 32-32 32zm0 0"/></svg>