<svg height="100pt" viewBox="0 -2 512 512" width="100pt" xmlns="http://www.w3.org/2000/svg"><g fill-rule="evenodd"><path d="m113.523438 104.28125v114.152344l155.191406 50.285156 153.429687-50.285156-.027343-117.75c10.261718-10.261719 16.042968-24.039063 16.042968-38.578125 0-30.019531-24.574218-54.59375-54.59375-54.59375h-235.433594c-30.019531 0-54.59375 24.574219-54.59375 54.59375 0 16.949219 7.796876 32.144531 19.984376 42.175781zm0 0" fill="#edcf56"/><path d="m141.074219 90.308594c-5.015625-8.25-7.910157-17.886719-7.910157-28.203125 0-30.019531 24.578126-54.59375 54.621094-54.59375h-39.652344c-30.019531 0-54.59375 24.574219-54.59375 54.59375 0 16.949219 7.796876 32.144531 19.984376 42.179687v114.148438h39.652343v-90.507813c.003907-30.558593 1.136719-15.820312-12.101562-37.617187zm0 0" fill="#db993d"/><path d="m363.101562 500.703125h90.707032c4.789062 0 8.726562-3.914063 8.726562-8.730469v-26.589844l-57.3125-26.984374-50.851562 26.984374v26.589844c0 4.816406 3.941406 8.730469 8.730468 8.730469zm0 0" fill="#616d80"/><path d="m87.445312 500.703125h90.675782c4.820312 0 8.730468-3.914063 8.730468-8.730469v-26.589844l-58.164062-26.984374-49.972656 26.984374v26.589844c0 4.816406 3.914062 8.730469 8.730468 8.730469zm0 0" fill="#616d80"/><path d="m46.203125 328.726562 16.496094-38.492187-16.496094-31.125h-30.613281c-4.449219 0-8.078125 3.628906-8.078125 8.078125v53.460938c0 4.421874 3.628906 8.078124 8.078125 8.078124zm0 0" fill="#616d80"/><path d="m186.851562 465.382812h298.929688c10.289062 0 18.707031-8.417968 18.707031-18.707031v-187.566406c0-22.367187-18.3125-40.675781-40.675781-40.675781h-376.933594c-22.363281 0-40.675781 18.3125-40.675781 40.675781v187.566406c0 10.289063 8.417969 18.707031 18.707031 18.707031zm0 0" fill="#e6e6e6"/><path d="m411.089844 332.609375c4.449218 0 8.390625-2.039063 10.972656-5.269531 1.925781-2.382813 3.058594-5.445313 3.058594-8.761719 0-3.257813-1.105469-6.261719-2.976563-8.644531-2.578125-3.261719-6.574219-5.359375-11.054687-5.359375-7.738282 0-14.03125 6.265625-14.03125 14.003906 0 7.769531 6.292968 14.03125 14.03125 14.03125zm0 0" fill="#eb5757"/><path d="m450.945312 367.84375c7.738282 0 14.03125-6.292969 14.03125-14.03125s-6.292968-14.03125-14.03125-14.03125c-7.738281 0-14.03125 6.292969-14.03125 14.03125s6.292969 14.03125 14.03125 14.03125zm0 0" fill="#edcf56"/><path d="m450.972656 419.007812c7.765625 0 14.03125-6.292968 14.03125-14.03125 0-7.738281-6.265625-14.03125-14.03125-14.03125-7.738281 0-14.03125 6.292969-14.03125 14.03125 0 7.738282 6.292969 14.03125 14.03125 14.03125zm0 0" fill="#55cf63"/><path d="m379.769531 415.917969c17.828125 0 32.285157-14.453125 32.285157-32.285157 0-8.984374-3.6875-17.121093-9.636719-22.988281-5.8125-5.726562-13.832031-9.269531-22.648438-9.269531-11.933593 0-22.335937 6.464844-27.921875 16.070312-2.777344 4.765626-4.363281 10.292969-4.363281 16.1875 0 17.828126 14.457031 32.285157 32.285156 32.285157zm0 0" fill="#616d80"/><path d="m72.847656 328.726562v-69.617187c0-22.367187 18.3125-40.675781 40.675782-40.675781h-26.644532c-22.363281 0-40.675781 18.3125-40.675781 40.675781v187.566406c0 10.289063 8.417969 18.707031 18.707031 18.707031h26.644532c-3.175782 0-6.152344-.792968-8.757813-2.210937-5.898437-3.144531-9.949219-9.355469-9.949219-16.496094zm0 0" fill="#b3b3b3"/><path d="m118.285156 500.703125c-4.789062 0-8.730468-3.914063-8.730468-8.730469v-26.589844h-30.839844v26.589844c0 4.816406 3.914062 8.730469 8.730468 8.730469zm0 0" fill="#3f4c63"/><path d="m393.941406 500.703125c-4.789062 0-8.730468-3.914063-8.730468-8.730469v-26.589844h-30.839844v26.589844c0 4.816406 3.941406 8.730469 8.730468 8.730469zm0 0" fill="#3f4c63"/><path d="m359.757812 383.632812c0-5.894531 1.585938-11.421874 4.335938-16.1875 4.621094-7.933593 12.5-13.71875 21.796875-15.503906-1.984375-.367187-4.023437-.566406-6.121094-.566406-11.933593 0-22.335937 6.464844-27.921875 16.070312-2.777344 4.765626-4.363281 10.292969-4.363281 16.1875 0 17.832032 14.457031 32.285157 32.285156 32.285157 2.097657 0 4.136719-.195313 6.121094-.566407-14.878906-2.890624-26.132813-15.988281-26.132813-31.71875zm0 0" fill="#3f4c63"/><path d="m22.816406 320.648438v-53.460938c0-4.449219 3.628906-8.078125 8.078125-8.078125h-15.304687c-4.449219 0-8.078125 3.628906-8.078125 8.078125v53.460938c0 4.421874 3.628906 8.078124 8.078125 8.078124h15.304687c-4.449219 0-8.078125-3.65625-8.078125-8.078124zm0 0" fill="#3f4c63"/></g><path d="m463.8125 210.921875h-34.15625l-.027344-107.238281c10.371094-11.457032 16.042969-26.101563 16.042969-41.578125 0-34.246094-27.859375-62.105469-62.101563-62.105469h-235.4375c-34.246093 0-62.105468 27.859375-62.105468 62.105469 0 17.394531 7.242187 33.8125 19.984375 45.589843v103.226563h-19.132813c-24.015625 0-43.980468 17.660156-47.597656 40.675781h-23.691406c-8.597656 0-15.589844 6.996094-15.589844 15.589844v53.460938c0 8.597656 6.992188 15.589843 15.589844 15.589843h23.101562v110.4375c0 14.457031 11.761719 26.21875 26.21875 26.21875h6.292969v19.078125c0 8.957032 7.285156 16.242188 16.242187 16.242188h90.675782c8.957031 0 16.242187-7.289063 16.242187-16.242188v-19.078125h152.496094v19.078125c0 8.957032 7.285156 16.242188 16.242187 16.242188h90.707032c8.953125 0 16.242187-7.289063 16.242187-16.242188v-19.078125h15.730469c14.457031 0 26.21875-11.761719 26.21875-26.21875v-187.566406c0-26.570313-21.617188-48.1875-48.1875-48.1875zm-448.222656 110.292969c-.285156 0-.566406-.28125-.566406-.566406v-53.460938c0-.300781.265624-.566406.566406-.566406h23.101562v54.59375zm163.75 170.757812c0 .671875-.546875 1.21875-1.21875 1.21875h-90.675782c-.671874 0-1.21875-.546875-1.21875-1.21875v-19.078125h93.113282zm275.683594 0c0 .660156-.554688 1.21875-1.214844 1.21875h-90.707032c-.660156 0-1.21875-.558594-1.21875-1.21875v-19.078125h93.140626zm41.953124-45.296875c0 6.171875-5.023437 11.195313-11.195312 11.195313h-420.871094c-6.171875 0-11.195312-5.023438-11.195312-11.195313v-187.566406c0-18.289063 14.878906-33.164063 33.164062-33.164063h163.410156c4.148438 0 7.511719-3.363281 7.511719-7.511718 0-4.148438-3.363281-7.511719-7.511719-7.511719h-129.253906v-106.640625c0-2.242188-1.003906-4.371094-2.738281-5.796875-10.960937-9.023437-17.246094-22.285156-17.246094-36.378906 0-25.964844 21.121094-47.085938 47.082031-47.085938h235.433594c25.960938 0 47.082032 21.121094 47.082032 47.085938 0 12.523437-4.917969 24.339843-13.84375 33.265625-1.410157 1.410156-2.199219 3.320312-2.199219 5.3125l.027343 110.238281h-129.734374c-4.148438 0-7.511719 3.363281-7.511719 7.511719 0 4.144531 3.363281 7.507812 7.511719 7.507812h178.914062c18.289062 0 33.164062 14.878906 33.164062 33.164063zm0 0"/><path d="m305.929688 268.066406h-62.984376c-4.148437 0-7.511718 3.363282-7.511718 7.511719s3.363281 7.511719 7.511718 7.511719h62.984376c4.148437 0 7.511718-3.363282 7.511718-7.511719s-3.363281-7.511719-7.511718-7.511719zm0 0"/><path d="m305.929688 297.066406h-62.984376c-4.148437 0-7.511718 3.363282-7.511718 7.507813 0 4.148437 3.363281 7.511719 7.511718 7.511719h62.984376c4.148437 0 7.511718-3.363282 7.511718-7.511719 0-4.144531-3.363281-7.507813-7.511718-7.507813zm0 0"/><path d="m411.089844 297.066406c-11.878906 0-21.542969 9.648438-21.542969 21.511719 0 11.878906 9.664063 21.542969 21.542969 21.542969s21.542968-9.664063 21.542968-21.542969c0-11.863281-9.664062-21.511719-21.542968-21.511719zm0 28.03125c-3.59375 0-6.519532-2.921875-6.519532-6.519531 0-3.578125 2.925782-6.488281 6.519532-6.488281 3.597656 0 6.519531 2.910156 6.519531 6.488281 0 3.597656-2.921875 6.519531-6.519531 6.519531zm0 0"/><path d="m450.945312 375.355469c11.878907 0 21.542969-9.664063 21.542969-21.542969s-9.664062-21.542969-21.542969-21.542969c-11.878906 0-21.542968 9.664063-21.542968 21.542969s9.664062 21.542969 21.542968 21.542969zm0-28.0625c3.59375 0 6.519532 2.925781 6.519532 6.519531 0 3.535156-2.988282 6.519531-6.519532 6.519531-3.597656 0-6.519531-2.925781-6.519531-6.519531s2.921875-6.519531 6.519531-6.519531zm0 0"/><path d="m450.972656 383.433594c-11.878906 0-21.542968 9.664062-21.542968 21.542968 0 11.878907 9.664062 21.542969 21.542968 21.542969s21.542969-9.664062 21.542969-21.542969c0-11.878906-9.664063-21.542968-21.542969-21.542968zm0 28.0625c-3.59375 0-6.519531-2.925782-6.519531-6.519532 0-3.53125 2.984375-6.519531 6.519531-6.519531 3.59375 0 6.519532 2.925781 6.519532 6.519531s-2.925782 6.519532-6.519532 6.519532zm0 0"/><path d="m379.769531 343.863281c-21.945312 0-39.796875 17.839844-39.796875 39.769531 0 21.945313 17.851563 39.796876 39.796875 39.796876 21.945313 0 39.796875-17.851563 39.796875-39.796876 0-21.929687-17.851562-39.769531-39.796875-39.769531zm0 64.542969c-13.660156 0-24.773437-11.113281-24.773437-24.773438 0-13.644531 11.113281-24.746093 24.773437-24.746093 13.660157 0 24.773438 11.101562 24.773438 24.746093 0 13.660157-11.113281 24.773438-24.773438 24.773438zm0 0"/></svg>